<?xml version="1.0" standalone="no"?>
<!DOCTYPE svg PUBLIC "-//W3C//DTD SVG 20010904//EN"
 "http://www.w3.org/TR/2001/REC-SVG-20010904/DTD/svg10.dtd">
<svg version="1.0" xmlns="http://www.w3.org/2000/svg"
 width="318.000000pt" height="318.000000pt" viewBox="0 0 318.000000 318.000000"
 preserveAspectRatio="xMidYMid meet">
<metadata>
Created by potrace 1.14, written by Peter Selinger 2001-2017
</metadata>
<g transform="translate(0.000000,318.000000) scale(0.100000,-0.100000)"
fill="#000000" stroke="none">
<path d="M1526 3032 c-2 -1 -25 -5 -52 -7 -63 -5 -112 -14 -148 -25 -15 -6
-32 -7 -37 -4 -5 3 -9 0 -9 -6 0 -6 -4 -9 -9 -6 -9 6 -126 -32 -191 -61 -69
-30 -145 -68 -150 -74 -3 -3 -20 -14 -37 -23 -18 -9 -33 -21 -33 -27 0 -6 -4
-7 -10 -4 -5 3 -10 2 -10 -2 0 -5 -17 -17 -37 -28 -48 -26 -217 -193 -273
-272 -49 -67 -104 -156 -100 -162 1 -2 -2 -7 -7 -10 -12 -9 -73 -142 -78 -170
-3 -14 -10 -28 -17 -33 -10 -6 -9 -8 2 -8 11 0 12 -3 3 -8 -6 -4 -14 -21 -17
-37 -2 -17 -5 -30 -6 -30 -1 0 -3 -9 -5 -20 -2 -11 -7 -36 -11 -55 -12 -66
-17 -115 -18 -210 l-1 -95 208 0 c114 0 207 -4 207 -9 0 -5 6 -3 13 3 8 6 15
32 15 57 1 25 5 50 7 54 3 5 1 11 -5 15 -6 4 -7 11 -3 18 9 16 10 87 0 87 -4
0 -5 5 -2 11 11 16 13 59 4 59 -5 0 -5 10 -1 23 6 18 7 90 1 160 0 6 2 22 5
35 2 12 1 22 -4 22 -5 0 -5 13 0 30 5 18 5 32 -1 36 -5 3 -6 11 -2 17 11 18
12 37 2 37 -6 0 -5 8 1 20 8 14 8 20 0 20 -7 0 -8 6 -2 18 5 9 6 26 2 37 -16
44 57 130 92 109 7 -4 8 -2 4 4 -4 7 1 10 14 9 11 -1 20 -5 20 -10 0 -6 5 -6
13 0 6 5 65 8 129 7 65 -1 116 2 113 6 -3 5 -1 11 4 14 4 3 11 19 15 36 12 61
56 86 148 86 l66 -1 14 40 c20 61 74 121 136 151 35 16 146 23 182 11 8 -3 25
-8 38 -12 12 -4 22 -11 22 -16 0 -5 5 -9 12 -9 29 0 109 -121 100 -152 -1 -5
8 -8 20 -9 160 -5 177 -13 207 -97 l17 -47 89 -1 c50 -1 95 -3 100 -4 6 -1 12
-2 15 0 17 6 100 4 100 -3 0 -5 4 -6 10 -2 5 3 23 -8 39 -26 l30 -31 0 -395
c-1 -290 2 -398 11 -403 15 -9 412 -7 426 2 18 12 5 228 -20 343 -16 68 -47
167 -66 210 -13 28 -24 52 -25 55 -7 30 -122 215 -158 255 -9 11 -31 35 -47
54 -17 18 -30 38 -30 44 0 6 -2 8 -5 5 -3 -3 -25 14 -48 38 -23 24 -48 44 -55
44 -7 0 -10 5 -7 10 3 6 0 10 -9 10 -8 0 -16 4 -18 8 -5 14 -159 115 -223 147
-33 17 -62 33 -65 36 -8 9 -199 69 -220 69 -11 0 -20 4 -20 8 0 4 -8 8 -17 9
-49 3 -73 8 -73 17 0 6 -5 5 -12 -2 -6 -6 -18 -8 -27 -3 -9 4 -41 9 -71 11
-94 5 -161 6 -164 2z"/>
<path d="M1563 2747 c-3 -5 -11 -6 -18 -3 -7 2 -29 -11 -49 -30 -34 -33 -43
-56 -48 -134 l-3 -35 -97 0 c-53 0 -100 -4 -104 -8 -11 -11 -12 -177 -1 -184
14 -9 690 -4 699 5 5 5 8 49 6 98 l-3 89 -85 1 c-136 3 -128 1 -122 29 9 49
-8 95 -50 136 -23 22 -47 38 -55 35 -7 -3 -13 -2 -13 2 0 10 -51 9 -57 -1z
m89 -82 c30 -29 34 -81 10 -108 -28 -31 -65 -47 -85 -36 -9 6 -17 7 -17 3 0
-4 -11 5 -25 20 -31 34 -32 77 -3 116 29 40 83 42 120 5z"/>
<path d="M951 2414 c-1 -7 -19 -10 -46 -9 -82 4 -76 82 -74 -939 1 -498 4
-904 7 -901 3 2 10 -3 17 -12 29 -40 35 -3 34 225 -1 125 -1 232 1 237 1 6 2
12 1 15 -2 7 -4 1216 -2 1278 1 13 4 28 7 34 3 5 48 8 103 7 53 -2 102 0 107
4 11 6 12 42 2 52 -8 9 -122 10 -135 2 -6 -4 -14 -1 -16 5 -3 8 -6 8 -6 2z"/>
<path d="M2083 2392 c-20 -34 -2 -41 105 -43 87 -1 102 -4 103 -18 1 -9 2
-416 4 -906 1 -490 3 -894 4 -898 0 -4 13 3 28 17 l27 25 0 906 c0 697 -3 908
-12 917 -8 8 -54 13 -130 15 -105 3 -118 1 -129 -15z"/>
<path d="M1551 2206 c-14 -17 -8 -91 7 -88 6 1 12 -3 12 -9 0 -8 4 -9 13 0 8
6 17 8 20 5 3 -4 17 -4 30 0 22 5 24 10 21 48 -2 23 -6 44 -9 46 -9 10 -86 8
-94 -2z"/>
<path d="M1472 2003 l-26 -22 -1 -233 c-2 -236 1 -254 35 -253 13 0 15 32 15
220 1 121 4 226 8 233 11 17 36 15 43 -3 3 -8 7 -128 7 -267 l2 -253 58 0 c31
0 57 -2 57 -6 0 -9 27 -6 36 4 9 9 9 581 0 596 -8 13 -56 11 -56 -3 0 -6 -5
-5 -12 2 -7 7 -17 8 -30 1 -10 -5 -18 -6 -18 -1 0 4 -21 8 -46 8 -33 -1 -54
-7 -72 -23z"/>
<path d="M1108 1882 c-26 -3 -26 -4 -25 -78 0 -60 3 -74 16 -75 42 -3 236 3
240 7 3 3 6 34 6 70 1 51 -2 64 -14 65 -9 1 -52 3 -97 4 -44 1 -85 4 -90 6 -5
3 -21 3 -36 1z"/>
<path d="M2002 1881 c-6 -4 -43 -6 -82 -5 -38 1 -67 -2 -64 -7 3 -5 1 -9 -3
-9 -5 0 -8 -28 -8 -62 1 -42 6 -62 13 -60 7 1 12 -1 12 -5 0 -10 133 -9 149 1
6 4 11 3 11 -2 0 -5 10 -8 23 -6 12 1 29 3 38 3 14 1 17 12 15 73 -2 70 -3 73
-26 73 -14 0 -28 5 -32 10 -5 6 -8 5 -8 -4 0 -10 -3 -11 -13 -3 -7 6 -18 8
-25 3z"/>
<path d="M293 1506 c6 -53 18 -110 23 -116 9 -8 404 -8 409 1 3 4 1 10 -5 14
-6 4 -7 12 -1 24 5 9 6 23 1 31 -4 7 -4 24 0 36 6 14 5 26 -1 29 -5 4 -7 10
-4 15 3 4 -92 8 -211 8 l-216 -1 5 -41z"/>
<path d="M2474 1536 c-11 -28 -9 -129 2 -140 8 -8 43 -12 100 -11 49 1 97 -2
107 -7 9 -5 17 -5 17 -1 0 10 61 10 77 0 6 -4 14 -3 17 2 4 5 14 8 24 6 9 -1
23 3 31 9 11 8 13 8 7 -1 -5 -9 -2 -11 8 -7 16 6 31 58 21 74 -3 5 -1 10 5 10
7 0 10 7 6 15 -3 8 -2 15 3 15 4 0 6 11 4 24 l-5 24 -210 -1 c-143 0 -211 -4
-214 -11z"/>
<path d="M1218 1535 c-4 -4 -35 -8 -70 -9 l-63 -1 -2 -64 c-2 -73 9 -92 48
-81 14 4 32 4 39 0 7 -4 24 -5 39 -1 14 3 50 6 78 6 29 0 54 5 54 10 5 41 4
103 -3 117 -6 12 -20 16 -58 15 -27 -1 -51 2 -53 6 -1 5 -5 5 -9 2z"/>
<path d="M1978 1534 c-4 -5 -24 -8 -45 -7 -21 1 -50 0 -64 -3 -24 -5 -25 -8
-24 -68 2 -68 10 -90 28 -79 15 9 117 10 117 0 0 -4 10 -3 21 4 17 9 20 8 14
-2 -6 -8 -4 -10 5 -4 7 4 27 9 44 9 l30 1 3 68 c2 64 1 67 -22 73 -14 3 -41 4
-60 2 -19 -2 -36 1 -38 6 -2 6 -5 7 -9 0z"/>
<path d="M1484 1359 c-2 -4 -6 -21 -8 -39 -5 -42 10 -47 127 -46 107 2 116 7
109 56 -4 31 -27 46 -47 30 -6 -5 -14 -7 -18 -4 -8 9 -158 11 -163 3z"/>
<path d="M368 1279 c-19 -10 -16 -36 9 -99 6 -14 12 -32 15 -40 3 -9 20 -16
44 -18 21 -1 44 -3 49 -3 6 -1 18 2 28 6 10 4 17 3 17 -3 0 -7 10 -8 30 -2 18
5 30 5 30 0 0 -6 10 -6 23 -1 13 5 29 6 36 2 16 -10 72 -1 65 10 -3 5 0 9 6 9
7 0 8 6 1 18 -5 10 -6 24 -2 31 8 13 -1 87 -12 98 -4 3 -13 0 -22 -7 -8 -7
-15 -9 -15 -4 0 11 -250 12 -267 1 -6 -4 -13 -3 -15 2 -2 6 -9 6 -20 0z"/>
<path d="M2472 1204 c0 -46 3 -82 8 -79 5 3 11 1 15 -5 4 -6 11 -7 18 -3 18
11 77 10 77 -2 0 -6 3 -7 8 0 10 14 32 17 32 5 0 -6 10 -6 27 1 20 7 29 7 31
-1 3 -8 8 -7 18 1 11 9 18 9 26 1 8 -8 17 -8 30 -1 10 5 18 7 18 4 0 -4 6 0
14 7 14 15 31 58 28 71 -1 4 3 7 9 7 5 0 7 5 4 10 -3 6 -3 10 2 10 4 0 9 11 9
25 1 14 -2 22 -7 19 -5 -3 -9 -2 -9 3 0 10 -51 10 -67 0 -7 -5 -13 -4 -13 0 0
6 -151 8 -225 2 -5 0 -20 2 -31 4 -21 5 -22 2 -22 -79z"/>
<path d="M1098 1182 c-14 -3 -17 -14 -15 -75 l2 -72 129 0 130 0 1 63 c2 43
-2 66 -12 74 -14 11 -194 19 -235 10z"/>
<path d="M1483 1177 c-8 -12 -9 -606 -1 -662 3 -17 10 -40 17 -53 6 -12 10
-22 7 -22 -3 0 0 -15 5 -32 6 -18 23 -81 38 -139 39 -147 44 -154 66 -88 9 30
18 61 20 69 8 41 18 76 24 85 4 6 7 17 6 25 -1 8 5 27 12 43 7 15 11 27 7 27
-4 0 -1 7 6 15 6 8 9 19 5 25 -3 5 -2 10 2 10 12 0 12 0 15 372 l3 337 -112 0
c-74 0 -114 -4 -120 -12z"/>
<path d="M1851 1176 c-6 -9 -8 -71 -2 -127 1 -14 18 -16 120 -18 85 -1 121 2
128 11 10 14 11 117 1 134 -8 12 -157 12 -175 1 -7 -5 -13 -4 -13 0 0 13 -49
11 -59 -1z"/>
<path d="M536 1021 c-3 -5 -19 -7 -35 -6 -42 3 -45 -16 -11 -62 16 -21 30 -42
30 -48 1 -22 19 -37 54 -45 20 -4 36 -5 36 -1 0 6 49 6 75 1 24 -5 37 1 32 15
-4 8 -2 17 3 20 7 4 6 13 0 26 -8 14 -7 19 1 19 9 0 9 3 0 14 -8 10 -9 16 -2
21 21 12 -16 51 -46 49 -16 -1 -29 -3 -30 -4 -8 -7 -30 -5 -40 2 -6 5 -14 5
-18 -2 -4 -7 -12 -7 -25 0 -11 6 -21 6 -24 1z"/>
<path d="M2500 1022 c0 -7 -5 -10 -10 -7 -12 8 -23 -17 -22 -53 1 -91 2 -100
21 -105 10 -2 26 0 36 6 13 7 16 6 10 -3 -6 -9 -3 -10 12 -2 10 6 25 7 32 3
16 -10 61 -2 61 11 0 5 4 7 9 3 6 -3 15 4 21 15 6 11 7 20 3 20 -4 0 -3 4 3 8
14 9 54 78 54 93 0 6 -7 9 -15 6 -8 -4 -17 -2 -21 4 -3 6 -10 6 -17 1 -7 -5
-23 -8 -37 -6 -31 5 -36 5 -85 1 -22 -1 -43 2 -47 8 -5 6 -8 5 -8 -3z"/>
<path d="M1108 832 c-26 -3 -26 -4 -25 -75 l2 -72 128 0 c70 -1 127 2 128 5 5
35 3 133 -4 137 -10 6 -187 10 -229 5z"/>
<path d="M1859 830 c-13 -7 -16 -23 -14 -72 2 -35 3 -65 4 -69 2 -10 251 -5
252 6 6 46 3 127 -4 132 -16 10 -207 9 -207 -2 0 -5 -4 -5 -8 2 -5 7 -13 8
-23 3z"/>
<path d="M651 756 c-11 -13 -7 -21 35 -59 18 -16 31 -22 32 -15 0 7 3 23 6 36
3 15 1 20 -6 16 -7 -5 -9 -1 -5 9 4 10 1 17 -6 18 -7 0 -20 2 -29 4 -9 2 -22
-2 -27 -9z"/>
<path d="M2480 757 c-13 -11 -15 -20 -11 -64 2 -22 38 -9 58 22 21 31 21 32 1
44 -16 10 -19 10 -12 -1 6 -10 5 -11 -7 -1 -11 9 -18 9 -29 0z"/>
</g>
</svg>
